<svg width="117" height="32" viewBox="0 0 117 32" fill="none" xmlns="http://www.w3.org/2000/svg">
<mask id="path-1-outside-1_5529_1096" maskUnits="userSpaceOnUse" x="27.9736" y="0" width="89" height="32" fill="black">
<rect fill="white" x="27.9736" width="89" height="32"/>
<path d="M33.0789 22.4737H35.6052C35.8999 22.4737 36.0999 22.4211 36.2052 22.3158C36.3105 22.1895 36.3631 21.9895 36.3631 21.7158V3.08421C36.3631 2.74737 36.2578 2.48421 36.0473 2.29474C35.8368 2.10526 35.5526 2.01053 35.1947 2.01053C34.2052 2.01053 33.2999 2.55789 32.4789 3.65263C31.6578 4.72632 31.0473 5.98947 30.6473 7.44211C30.4157 8.22105 30.2473 8.88421 30.1421 9.43158C30.0578 9.95789 30.0052 10.2842 29.9842 10.4105H28.9736L29.2263 1H48.1736L48.4263 10.4105H47.4157C47.3947 10.2842 47.3315 9.95789 47.2263 9.43158C47.1421 8.88421 46.9842 8.22105 46.7526 7.44211C46.3526 5.98947 45.7421 4.72632 44.921 3.65263C44.0999 2.55789 43.1947 2.01053 42.2052 2.01053C41.8473 2.01053 41.5631 2.10526 41.3526 2.29474C41.1421 2.48421 41.0368 2.74737 41.0368 3.08421V21.7158C41.0368 21.9895 41.0894 22.1895 41.1947 22.3158C41.321 22.4211 41.521 22.4737 41.7947 22.4737H44.321V23.4842H33.0789V22.4737Z"/>
<path d="M56.5995 23.8632C56.0732 23.8632 55.6206 23.8 55.2416 23.6737C54.8627 23.5684 54.5048 23.4 54.168 23.1684C53.6416 22.7895 53.2206 22.2632 52.9048 21.5895C52.6101 20.9158 52.4627 20.2211 52.4627 19.5053V9.77895C52.4627 9.58947 52.4206 9.46316 52.3364 9.4C52.2732 9.31579 52.1469 9.27368 51.9574 9.27368H50.4416V8.51579H56.1259V20.4211C56.1259 22.0421 56.6101 22.8526 57.5785 22.8526C58.0206 22.8526 58.4837 22.5579 58.968 21.9684C59.4522 21.3789 59.8522 20.6 60.168 19.6316C60.5048 18.6632 60.6732 17.6316 60.6732 16.5368V9.77895C60.6732 9.58947 60.6311 9.46316 60.5469 9.4C60.4837 9.31579 60.3574 9.27368 60.168 9.27368H58.6522V8.51579H64.3364V22.2211C64.3364 22.4105 64.368 22.5474 64.4311 22.6316C64.5153 22.6947 64.6522 22.7263 64.8416 22.7263H66.0416V23.4842H60.6732V20.6737L60.5153 20.6421C60.0943 21.6316 59.5469 22.4211 58.8732 23.0105C58.2206 23.5789 57.4627 23.8632 56.5995 23.8632Z"/>
<path d="M68.3092 22.7263H69.5092C69.6986 22.7263 69.8249 22.6947 69.8881 22.6316C69.9723 22.5474 70.0144 22.4105 70.0144 22.2211V9.77895C70.0144 9.58947 69.9723 9.46316 69.8881 9.4C69.8249 9.31579 69.6986 9.27368 69.5092 9.27368H68.3092V8.51579H73.6776V11.3263L73.8355 11.3579C74.2565 10.3684 74.7934 9.58947 75.446 9.02105C76.1197 8.43158 76.8881 8.13684 77.7513 8.13684C78.2776 8.13684 78.7302 8.2 79.1092 8.32632C79.4881 8.43158 79.846 8.6 80.1828 8.83158C80.7092 9.21053 81.1197 9.73684 81.4144 10.4105C81.7302 11.0842 81.8881 11.7789 81.8881 12.4947V22.2211C81.8881 22.4105 81.9197 22.5474 81.9828 22.6316C82.0671 22.6947 82.2039 22.7263 82.3934 22.7263H83.5934V23.4842H76.7092V22.7263H77.7197C77.9092 22.7263 78.0355 22.6947 78.0986 22.6316C78.1828 22.5474 78.2249 22.4105 78.2249 22.2211V11.5789C78.2249 9.95789 77.7407 9.14737 76.7723 9.14737C76.3302 9.14737 75.8671 9.44211 75.3828 10.0316C74.8986 10.6211 74.4881 11.4 74.1513 12.3684C73.8355 13.3368 73.6776 14.3684 73.6776 15.4632V22.2211C73.6776 22.4105 73.7092 22.5474 73.7723 22.6316C73.8565 22.6947 73.9934 22.7263 74.1828 22.7263H75.1934V23.4842H68.3092V22.7263Z"/>
<path d="M92.9301 31C90.9722 31 89.3091 30.6526 87.9407 29.9579C86.5933 29.2632 85.9196 28.3053 85.9196 27.0842C85.9196 26.3895 86.1828 25.7474 86.7091 25.1579C87.2354 24.5895 87.9617 24.2 88.888 23.9895V23.8947C88.2564 23.8526 87.688 23.5895 87.1828 23.1053C86.6775 22.6211 86.4249 22.0211 86.4249 21.3053C86.4249 19.3053 87.6038 18.0737 89.9617 17.6105V17.4842C89.1407 17.1263 88.4143 16.5789 87.7828 15.8421C87.1722 15.1053 86.867 14.1789 86.867 13.0632C86.867 12.1158 87.1301 11.2632 87.6564 10.5053C88.2038 9.74737 88.9091 9.16842 89.7722 8.76842C90.6564 8.34737 91.6038 8.13684 92.6143 8.13684C94.3407 8.13684 95.8038 8.68421 97.0038 9.77895H97.0985C97.7512 8.68421 98.5301 8.13684 99.4354 8.13684C100.109 8.13684 100.656 8.34737 101.077 8.76842C101.499 9.16842 101.709 9.65263 101.709 10.2211C101.709 10.8526 101.53 11.4 101.172 11.8632C100.835 12.3263 100.425 12.5579 99.9407 12.5579C99.6038 12.5579 99.3091 12.4632 99.0564 12.2737C98.8038 12.0632 98.6775 11.7895 98.6775 11.4526C98.6775 11.1158 98.8459 10.7368 99.1828 10.3158C99.3091 10.1895 99.4249 10.0421 99.5301 9.87368C99.6354 9.70526 99.688 9.55789 99.688 9.43158C99.688 9.09474 99.467 8.92632 99.0249 8.92632C98.4564 8.92632 97.9196 9.36842 97.4143 10.2526C98.088 10.9895 98.4249 12.0105 98.4249 13.3158C98.4249 14.0737 98.1828 14.8211 97.6985 15.5579C97.2143 16.2737 96.5196 16.8632 95.6143 17.3263C94.7301 17.7895 93.7091 18.0211 92.5512 18.0211C91.267 18.0211 90.2354 18.1368 89.4564 18.3684C88.6775 18.5789 88.288 19.0211 88.288 19.6947C88.288 20.4316 88.8038 20.8 89.8354 20.8H94.8249C96.3196 20.8 97.5617 21.1579 98.5512 21.8737C99.5406 22.5895 100.035 23.6632 100.035 25.0947C100.035 26.1474 99.7512 27.1158 99.1828 28C98.6143 28.9053 97.7933 29.6316 96.7196 30.1789C95.6459 30.7263 94.3828 31 92.9301 31ZM92.6775 17.2316C93.3512 17.2316 93.8354 16.9053 94.1301 16.2526C94.4249 15.5789 94.5722 14.5158 94.5722 13.0632C94.5722 11.6105 94.4249 10.5579 94.1301 9.90526C93.8354 9.23158 93.3512 8.89474 92.6775 8.89474C91.9828 8.89474 91.4775 9.23158 91.1617 9.90526C90.867 10.5579 90.7196 11.6105 90.7196 13.0632C90.7196 14.5158 90.867 15.5789 91.1617 16.2526C91.4775 16.9053 91.9828 17.2316 92.6775 17.2316ZM92.4564 29.9895C93.9091 29.9895 95.1828 29.6947 96.2775 29.1053C97.3722 28.5158 97.9196 27.6737 97.9196 26.5789C97.9196 25.7789 97.4775 25.2 96.5933 24.8421C95.7091 24.5053 94.5828 24.3368 93.2143 24.3368C91.5933 24.3368 90.1617 24.5263 88.9196 24.9053C87.6775 25.3053 87.0564 26.0421 87.0564 27.1158C87.0564 28.0421 87.5933 28.7474 88.667 29.2316C89.7617 29.7368 91.0249 29.9895 92.4564 29.9895Z"/>
<path d="M110.037 23.8632C108.9 23.8632 107.837 23.5263 106.847 22.8526C105.858 22.1579 105.068 21.2105 104.479 20.0105C103.889 18.8105 103.595 17.4737 103.595 16C103.595 14.5263 103.889 13.1895 104.479 11.9895C105.068 10.7895 105.858 9.85263 106.847 9.17895C107.837 8.48421 108.9 8.13684 110.037 8.13684C111.174 8.13684 112.237 8.48421 113.226 9.17895C114.216 9.85263 115.005 10.7895 115.595 11.9895C116.184 13.1895 116.479 14.5263 116.479 16C116.479 17.4737 116.184 18.8105 115.595 20.0105C115.005 21.2105 114.216 22.1579 113.226 22.8526C112.237 23.5263 111.174 23.8632 110.037 23.8632ZM110.037 23.1053C110.942 23.1053 111.563 22.5474 111.9 21.4316C112.258 20.3158 112.437 18.5053 112.437 16C112.437 13.4947 112.258 11.6842 111.9 10.5684C111.563 9.45263 110.942 8.89474 110.037 8.89474C109.132 8.89474 108.5 9.45263 108.142 10.5684C107.805 11.6842 107.637 13.4947 107.637 16C107.637 18.5053 107.805 20.3158 108.142 21.4316C108.5 22.5474 109.132 23.1053 110.037 23.1053Z"/>
</mask>
<path d="M33.0789 22.4737H35.6052C35.8999 22.4737 36.0999 22.4211 36.2052 22.3158C36.3105 22.1895 36.3631 21.9895 36.3631 21.7158V3.08421C36.3631 2.74737 36.2578 2.48421 36.0473 2.29474C35.8368 2.10526 35.5526 2.01053 35.1947 2.01053C34.2052 2.01053 33.2999 2.55789 32.4789 3.65263C31.6578 4.72632 31.0473 5.98947 30.6473 7.44211C30.4157 8.22105 30.2473 8.88421 30.1421 9.43158C30.0578 9.95789 30.0052 10.2842 29.9842 10.4105H28.9736L29.2263 1H48.1736L48.4263 10.4105H47.4157C47.3947 10.2842 47.3315 9.95789 47.2263 9.43158C47.1421 8.88421 46.9842 8.22105 46.7526 7.44211C46.3526 5.98947 45.7421 4.72632 44.921 3.65263C44.0999 2.55789 43.1947 2.01053 42.2052 2.01053C41.8473 2.01053 41.5631 2.10526 41.3526 2.29474C41.1421 2.48421 41.0368 2.74737 41.0368 3.08421V21.7158C41.0368 21.9895 41.0894 22.1895 41.1947 22.3158C41.321 22.4211 41.521 22.4737 41.7947 22.4737H44.321V23.4842H33.0789V22.4737Z" fill="#102C57"/>
<path d="M56.5995 23.8632C56.0732 23.8632 55.6206 23.8 55.2416 23.6737C54.8627 23.5684 54.5048 23.4 54.168 23.1684C53.6416 22.7895 53.2206 22.2632 52.9048 21.5895C52.6101 20.9158 52.4627 20.2211 52.4627 19.5053V9.77895C52.4627 9.58947 52.4206 9.46316 52.3364 9.4C52.2732 9.31579 52.1469 9.27368 51.9574 9.27368H50.4416V8.51579H56.1259V20.4211C56.1259 22.0421 56.6101 22.8526 57.5785 22.8526C58.0206 22.8526 58.4837 22.5579 58.968 21.9684C59.4522 21.3789 59.8522 20.6 60.168 19.6316C60.5048 18.6632 60.6732 17.6316 60.6732 16.5368V9.77895C60.6732 9.58947 60.6311 9.46316 60.5469 9.4C60.4837 9.31579 60.3574 9.27368 60.168 9.27368H58.6522V8.51579H64.3364V22.2211C64.3364 22.4105 64.368 22.5474 64.4311 22.6316C64.5153 22.6947 64.6522 22.7263 64.8416 22.7263H66.0416V23.4842H60.6732V20.6737L60.5153 20.6421C60.0943 21.6316 59.5469 22.4211 58.8732 23.0105C58.2206 23.5789 57.4627 23.8632 56.5995 23.8632Z" fill="#102C57"/>
<path d="M68.3092 22.7263H69.5092C69.6986 22.7263 69.8249 22.6947 69.8881 22.6316C69.9723 22.5474 70.0144 22.4105 70.0144 22.2211V9.77895C70.0144 9.58947 69.9723 9.46316 69.8881 9.4C69.8249 9.31579 69.6986 9.27368 69.5092 9.27368H68.3092V8.51579H73.6776V11.3263L73.8355 11.3579C74.2565 10.3684 74.7934 9.58947 75.446 9.02105C76.1197 8.43158 76.8881 8.13684 77.7513 8.13684C78.2776 8.13684 78.7302 8.2 79.1092 8.32632C79.4881 8.43158 79.846 8.6 80.1828 8.83158C80.7092 9.21053 81.1197 9.73684 81.4144 10.4105C81.7302 11.0842 81.8881 11.7789 81.8881 12.4947V22.2211C81.8881 22.4105 81.9197 22.5474 81.9828 22.6316C82.0671 22.6947 82.2039 22.7263 82.3934 22.7263H83.5934V23.4842H76.7092V22.7263H77.7197C77.9092 22.7263 78.0355 22.6947 78.0986 22.6316C78.1828 22.5474 78.2249 22.4105 78.2249 22.2211V11.5789C78.2249 9.95789 77.7407 9.14737 76.7723 9.14737C76.3302 9.14737 75.8671 9.44211 75.3828 10.0316C74.8986 10.6211 74.4881 11.4 74.1513 12.3684C73.8355 13.3368 73.6776 14.3684 73.6776 15.4632V22.2211C73.6776 22.4105 73.7092 22.5474 73.7723 22.6316C73.8565 22.6947 73.9934 22.7263 74.1828 22.7263H75.1934V23.4842H68.3092V22.7263Z" fill="#102C57"/>
<path d="M92.9301 31C90.9722 31 89.3091 30.6526 87.9407 29.9579C86.5933 29.2632 85.9196 28.3053 85.9196 27.0842C85.9196 26.3895 86.1828 25.7474 86.7091 25.1579C87.2354 24.5895 87.9617 24.2 88.888 23.9895V23.8947C88.2564 23.8526 87.688 23.5895 87.1828 23.1053C86.6775 22.6211 86.4249 22.0211 86.4249 21.3053C86.4249 19.3053 87.6038 18.0737 89.9617 17.6105V17.4842C89.1407 17.1263 88.4143 16.5789 87.7828 15.8421C87.1722 15.1053 86.867 14.1789 86.867 13.0632C86.867 12.1158 87.1301 11.2632 87.6564 10.5053C88.2038 9.74737 88.9091 9.16842 89.7722 8.76842C90.6564 8.34737 91.6038 8.13684 92.6143 8.13684C94.3407 8.13684 95.8038 8.68421 97.0038 9.77895H97.0985C97.7512 8.68421 98.5301 8.13684 99.4354 8.13684C100.109 8.13684 100.656 8.34737 101.077 8.76842C101.499 9.16842 101.709 9.65263 101.709 10.2211C101.709 10.8526 101.53 11.4 101.172 11.8632C100.835 12.3263 100.425 12.5579 99.9407 12.5579C99.6038 12.5579 99.3091 12.4632 99.0564 12.2737C98.8038 12.0632 98.6775 11.7895 98.6775 11.4526C98.6775 11.1158 98.8459 10.7368 99.1828 10.3158C99.3091 10.1895 99.4249 10.0421 99.5301 9.87368C99.6354 9.70526 99.688 9.55789 99.688 9.43158C99.688 9.09474 99.467 8.92632 99.0249 8.92632C98.4564 8.92632 97.9196 9.36842 97.4143 10.2526C98.088 10.9895 98.4249 12.0105 98.4249 13.3158C98.4249 14.0737 98.1828 14.8211 97.6985 15.5579C97.2143 16.2737 96.5196 16.8632 95.6143 17.3263C94.7301 17.7895 93.7091 18.0211 92.5512 18.0211C91.267 18.0211 90.2354 18.1368 89.4564 18.3684C88.6775 18.5789 88.288 19.0211 88.288 19.6947C88.288 20.4316 88.8038 20.8 89.8354 20.8H94.8249C96.3196 20.8 97.5617 21.1579 98.5512 21.8737C99.5406 22.5895 100.035 23.6632 100.035 25.0947C100.035 26.1474 99.7512 27.1158 99.1828 28C98.6143 28.9053 97.7933 29.6316 96.7196 30.1789C95.6459 30.7263 94.3828 31 92.9301 31ZM92.6775 17.2316C93.3512 17.2316 93.8354 16.9053 94.1301 16.2526C94.4249 15.5789 94.5722 14.5158 94.5722 13.0632C94.5722 11.6105 94.4249 10.5579 94.1301 9.90526C93.8354 9.23158 93.3512 8.89474 92.6775 8.89474C91.9828 8.89474 91.4775 9.23158 91.1617 9.90526C90.867 10.5579 90.7196 11.6105 90.7196 13.0632C90.7196 14.5158 90.867 15.5789 91.1617 16.2526C91.4775 16.9053 91.9828 17.2316 92.6775 17.2316ZM92.4564 29.9895C93.9091 29.9895 95.1828 29.6947 96.2775 29.1053C97.3722 28.5158 97.9196 27.6737 97.9196 26.5789C97.9196 25.7789 97.4775 25.2 96.5933 24.8421C95.7091 24.5053 94.5828 24.3368 93.2143 24.3368C91.5933 24.3368 90.1617 24.5263 88.9196 24.9053C87.6775 25.3053 87.0564 26.0421 87.0564 27.1158C87.0564 28.0421 87.5933 28.7474 88.667 29.2316C89.7617 29.7368 91.0249 29.9895 92.4564 29.9895Z" fill="#102C57"/>
<path d="M110.037 23.8632C108.9 23.8632 107.837 23.5263 106.847 22.8526C105.858 22.1579 105.068 21.2105 104.479 20.0105C103.889 18.8105 103.595 17.4737 103.595 16C103.595 14.5263 103.889 13.1895 104.479 11.9895C105.068 10.7895 105.858 9.85263 106.847 9.17895C107.837 8.48421 108.9 8.13684 110.037 8.13684C111.174 8.13684 112.237 8.48421 113.226 9.17895C114.216 9.85263 115.005 10.7895 115.595 11.9895C116.184 13.1895 116.479 14.5263 116.479 16C116.479 17.4737 116.184 18.8105 115.595 20.0105C115.005 21.2105 114.216 22.1579 113.226 22.8526C112.237 23.5263 111.174 23.8632 110.037 23.8632ZM110.037 23.1053C110.942 23.1053 111.563 22.5474 111.9 21.4316C112.258 20.3158 112.437 18.5053 112.437 16C112.437 13.4947 112.258 11.6842 111.9 10.5684C111.563 9.45263 110.942 8.89474 110.037 8.89474C109.132 8.89474 108.5 9.45263 108.142 10.5684C107.805 11.6842 107.637 13.4947 107.637 16C107.637 18.5053 107.805 20.3158 108.142 21.4316C108.5 22.5474 109.132 23.1053 110.037 23.1053Z" fill="#102C57"/>
<path d="M33.0789 22.4737H35.6052C35.8999 22.4737 36.0999 22.4211 36.2052 22.3158C36.3105 22.1895 36.3631 21.9895 36.3631 21.7158V3.08421C36.3631 2.74737 36.2578 2.48421 36.0473 2.29474C35.8368 2.10526 35.5526 2.01053 35.1947 2.01053C34.2052 2.01053 33.2999 2.55789 32.4789 3.65263C31.6578 4.72632 31.0473 5.98947 30.6473 7.44211C30.4157 8.22105 30.2473 8.88421 30.1421 9.43158C30.0578 9.95789 30.0052 10.2842 29.9842 10.4105H28.9736L29.2263 1H48.1736L48.4263 10.4105H47.4157C47.3947 10.2842 47.3315 9.95789 47.2263 9.43158C47.1421 8.88421 46.9842 8.22105 46.7526 7.44211C46.3526 5.98947 45.7421 4.72632 44.921 3.65263C44.0999 2.55789 43.1947 2.01053 42.2052 2.01053C41.8473 2.01053 41.5631 2.10526 41.3526 2.29474C41.1421 2.48421 41.0368 2.74737 41.0368 3.08421V21.7158C41.0368 21.9895 41.0894 22.1895 41.1947 22.3158C41.321 22.4211 41.521 22.4737 41.7947 22.4737H44.321V23.4842H33.0789V22.4737Z" stroke="#102C57" stroke-width="0.4" mask="url(#path-1-outside-1_5529_1096)"/>
<path d="M56.5995 23.8632C56.0732 23.8632 55.6206 23.8 55.2416 23.6737C54.8627 23.5684 54.5048 23.4 54.168 23.1684C53.6416 22.7895 53.2206 22.2632 52.9048 21.5895C52.6101 20.9158 52.4627 20.2211 52.4627 19.5053V9.77895C52.4627 9.58947 52.4206 9.46316 52.3364 9.4C52.2732 9.31579 52.1469 9.27368 51.9574 9.27368H50.4416V8.51579H56.1259V20.4211C56.1259 22.0421 56.6101 22.8526 57.5785 22.8526C58.0206 22.8526 58.4837 22.5579 58.968 21.9684C59.4522 21.3789 59.8522 20.6 60.168 19.6316C60.5048 18.6632 60.6732 17.6316 60.6732 16.5368V9.77895C60.6732 9.58947 60.6311 9.46316 60.5469 9.4C60.4837 9.31579 60.3574 9.27368 60.168 9.27368H58.6522V8.51579H64.3364V22.2211C64.3364 22.4105 64.368 22.5474 64.4311 22.6316C64.5153 22.6947 64.6522 22.7263 64.8416 22.7263H66.0416V23.4842H60.6732V20.6737L60.5153 20.6421C60.0943 21.6316 59.5469 22.4211 58.8732 23.0105C58.2206 23.5789 57.4627 23.8632 56.5995 23.8632Z" stroke="#102C57" stroke-width="0.4" mask="url(#path-1-outside-1_5529_1096)"/>
<path d="M68.3092 22.7263H69.5092C69.6986 22.7263 69.8249 22.6947 69.8881 22.6316C69.9723 22.5474 70.0144 22.4105 70.0144 22.2211V9.77895C70.0144 9.58947 69.9723 9.46316 69.8881 9.4C69.8249 9.31579 69.6986 9.27368 69.5092 9.27368H68.3092V8.51579H73.6776V11.3263L73.8355 11.3579C74.2565 10.3684 74.7934 9.58947 75.446 9.02105C76.1197 8.43158 76.8881 8.13684 77.7513 8.13684C78.2776 8.13684 78.7302 8.2 79.1092 8.32632C79.4881 8.43158 79.846 8.6 80.1828 8.83158C80.7092 9.21053 81.1197 9.73684 81.4144 10.4105C81.7302 11.0842 81.8881 11.7789 81.8881 12.4947V22.2211C81.8881 22.4105 81.9197 22.5474 81.9828 22.6316C82.0671 22.6947 82.2039 22.7263 82.3934 22.7263H83.5934V23.4842H76.7092V22.7263H77.7197C77.9092 22.7263 78.0355 22.6947 78.0986 22.6316C78.1828 22.5474 78.2249 22.4105 78.2249 22.2211V11.5789C78.2249 9.95789 77.7407 9.14737 76.7723 9.14737C76.3302 9.14737 75.8671 9.44211 75.3828 10.0316C74.8986 10.6211 74.4881 11.4 74.1513 12.3684C73.8355 13.3368 73.6776 14.3684 73.6776 15.4632V22.2211C73.6776 22.4105 73.7092 22.5474 73.7723 22.6316C73.8565 22.6947 73.9934 22.7263 74.1828 22.7263H75.1934V23.4842H68.3092V22.7263Z" stroke="#102C57" stroke-width="0.4" mask="url(#path-1-outside-1_5529_1096)"/>
<path d="M92.9301 31C90.9722 31 89.3091 30.6526 87.9407 29.9579C86.5933 29.2632 85.9196 28.3053 85.9196 27.0842C85.9196 26.3895 86.1828 25.7474 86.7091 25.1579C87.2354 24.5895 87.9617 24.2 88.888 23.9895V23.8947C88.2564 23.8526 87.688 23.5895 87.1828 23.1053C86.6775 22.6211 86.4249 22.0211 86.4249 21.3053C86.4249 19.3053 87.6038 18.0737 89.9617 17.6105V17.4842C89.1407 17.1263 88.4143 16.5789 87.7828 15.8421C87.1722 15.1053 86.867 14.1789 86.867 13.0632C86.867 12.1158 87.1301 11.2632 87.6564 10.5053C88.2038 9.74737 88.9091 9.16842 89.7722 8.76842C90.6564 8.34737 91.6038 8.13684 92.6143 8.13684C94.3407 8.13684 95.8038 8.68421 97.0038 9.77895H97.0985C97.7512 8.68421 98.5301 8.13684 99.4354 8.13684C100.109 8.13684 100.656 8.34737 101.077 8.76842C101.499 9.16842 101.709 9.65263 101.709 10.2211C101.709 10.8526 101.53 11.4 101.172 11.8632C100.835 12.3263 100.425 12.5579 99.9407 12.5579C99.6038 12.5579 99.3091 12.4632 99.0564 12.2737C98.8038 12.0632 98.6775 11.7895 98.6775 11.4526C98.6775 11.1158 98.8459 10.7368 99.1828 10.3158C99.3091 10.1895 99.4249 10.0421 99.5301 9.87368C99.6354 9.70526 99.688 9.55789 99.688 9.43158C99.688 9.09474 99.467 8.92632 99.0249 8.92632C98.4564 8.92632 97.9196 9.36842 97.4143 10.2526C98.088 10.9895 98.4249 12.0105 98.4249 13.3158C98.4249 14.0737 98.1828 14.8211 97.6985 15.5579C97.2143 16.2737 96.5196 16.8632 95.6143 17.3263C94.7301 17.7895 93.7091 18.0211 92.5512 18.0211C91.267 18.0211 90.2354 18.1368 89.4564 18.3684C88.6775 18.5789 88.288 19.0211 88.288 19.6947C88.288 20.4316 88.8038 20.8 89.8354 20.8H94.8249C96.3196 20.8 97.5617 21.1579 98.5512 21.8737C99.5406 22.5895 100.035 23.6632 100.035 25.0947C100.035 26.1474 99.7512 27.1158 99.1828 28C98.6143 28.9053 97.7933 29.6316 96.7196 30.1789C95.6459 30.7263 94.3828 31 92.9301 31ZM92.6775 17.2316C93.3512 17.2316 93.8354 16.9053 94.1301 16.2526C94.4249 15.5789 94.5722 14.5158 94.5722 13.0632C94.5722 11.6105 94.4249 10.5579 94.1301 9.90526C93.8354 9.23158 93.3512 8.89474 92.6775 8.89474C91.9828 8.89474 91.4775 9.23158 91.1617 9.90526C90.867 10.5579 90.7196 11.6105 90.7196 13.0632C90.7196 14.5158 90.867 15.5789 91.1617 16.2526C91.4775 16.9053 91.9828 17.2316 92.6775 17.2316ZM92.4564 29.9895C93.9091 29.9895 95.1828 29.6947 96.2775 29.1053C97.3722 28.5158 97.9196 27.6737 97.9196 26.5789C97.9196 25.7789 97.4775 25.2 96.5933 24.8421C95.7091 24.5053 94.5828 24.3368 93.2143 24.3368C91.5933 24.3368 90.1617 24.5263 88.9196 24.9053C87.6775 25.3053 87.0564 26.0421 87.0564 27.1158C87.0564 28.0421 87.5933 28.7474 88.667 29.2316C89.7617 29.7368 91.0249 29.9895 92.4564 29.9895Z" stroke="#102C57" stroke-width="0.4" mask="url(#path-1-outside-1_5529_1096)"/>
<path d="M110.037 23.8632C108.9 23.8632 107.837 23.5263 106.847 22.8526C105.858 22.1579 105.068 21.2105 104.479 20.0105C103.889 18.8105 103.595 17.4737 103.595 16C103.595 14.5263 103.889 13.1895 104.479 11.9895C105.068 10.7895 105.858 9.85263 106.847 9.17895C107.837 8.48421 108.9 8.13684 110.037 8.13684C111.174 8.13684 112.237 8.48421 113.226 9.17895C114.216 9.85263 115.005 10.7895 115.595 11.9895C116.184 13.1895 116.479 14.5263 116.479 16C116.479 17.4737 116.184 18.8105 115.595 20.0105C115.005 21.2105 114.216 22.1579 113.226 22.8526C112.237 23.5263 111.174 23.8632 110.037 23.8632ZM110.037 23.1053C110.942 23.1053 111.563 22.5474 111.9 21.4316C112.258 20.3158 112.437 18.5053 112.437 16C112.437 13.4947 112.258 11.6842 111.9 10.5684C111.563 9.45263 110.942 8.89474 110.037 8.89474C109.132 8.89474 108.5 9.45263 108.142 10.5684C107.805 11.6842 107.637 13.4947 107.637 16C107.637 18.5053 107.805 20.3158 108.142 21.4316C108.5 22.5474 109.132 23.1053 110.037 23.1053Z" stroke="#102C57" stroke-width="0.4" mask="url(#path-1-outside-1_5529_1096)"/>
<path d="M22.3758 23.4017V14.6112C22.3763 14.4437 22.324 14.2803 22.2265 14.144C22.129 14.0078 21.9911 13.9057 21.8324 13.852L17.581 12.4376V4.22244C17.5872 4.04203 17.5321 3.86483 17.4247 3.71972C17.3173 3.57461 17.164 3.47013 16.9896 3.4233L8.19914 1.02589C8.0264 0.980815 7.84353 0.994882 7.6797 1.06585L2.08575 3.46326C1.93748 3.52598 1.81161 3.63201 1.72463 3.76748C1.63764 3.90294 1.5936 4.06152 1.59827 4.22244V23.4017H0V25H23.9741V23.4017H22.3758ZM20.7776 15.1866V23.4017H19.9784V19.406H18.3801V23.4017H17.581V14.1237L20.7776 15.1866ZM13.1858 23.4017H11.5875V18.0315L13.1858 18.4311V23.4017ZM14.1767 17.0086L10.9801 16.2095C10.8622 16.1796 10.739 16.177 10.6199 16.2019C10.5008 16.2268 10.3889 16.2786 10.2929 16.3533C10.1976 16.4286 10.1208 16.5246 10.0682 16.6339C10.0156 16.7433 9.98856 16.8633 9.98921 16.9847V23.3778H8.79051V12.4615L15.9827 14.4194V23.4017H14.784V17.8078C14.7893 17.6252 14.732 17.4464 14.6215 17.301C14.511 17.1556 14.354 17.0524 14.1767 17.0086ZM3.19655 7.94642L7.19223 6.23627V7.6907L3.19655 9.40085V7.94642ZM8.79051 9.265L15.9827 11.2229V12.7652L8.79051 10.8073V9.265ZM15.9827 9.56867L8.79051 7.61078V6.06845L15.9827 8.02633V9.56867ZM3.19655 11.1669L7.19223 9.45679V10.9112L3.19655 12.5974V11.1669ZM15.9827 6.37212L8.79051 4.41423V2.8719L15.9827 4.82979V6.37212ZM7.19223 3.03972V4.49415L3.19655 6.2043V4.74987L7.19223 3.03972ZM3.19655 14.3395L7.19223 12.6294V23.4017H5.99353V16.2095H4.39525V23.4017H3.19655V14.3395Z" fill="#102C57"/>
</svg>
