<svg width="117" height="32" viewBox="0 0 117 32" fill="none" xmlns="http://www.w3.org/2000/svg">
<mask id="path-1-outside-1_5150_182" maskUnits="userSpaceOnUse" x="27.9746" y="0" width="89" height="32" fill="black">
<rect fill="white" x="27.9746" width="89" height="32"/>
<path d="M33.0799 22.4737H35.6062C35.9009 22.4737 36.1009 22.4211 36.2062 22.3158C36.3115 22.1895 36.3641 21.9895 36.3641 21.7158V3.08421C36.3641 2.74737 36.2588 2.48421 36.0483 2.29474C35.8378 2.10526 35.5536 2.01053 35.1957 2.01053C34.2062 2.01053 33.3009 2.55789 32.4799 3.65263C31.6588 4.72632 31.0483 5.98947 30.6483 7.44211C30.4167 8.22105 30.2483 8.88421 30.143 9.43158C30.0588 9.95789 30.0062 10.2842 29.9851 10.4105H28.9746L29.2272 1H48.1746L48.4272 10.4105H47.4167C47.3957 10.2842 47.3325 9.95789 47.2272 9.43158C47.143 8.88421 46.9851 8.22105 46.7536 7.44211C46.3536 5.98947 45.743 4.72632 44.922 3.65263C44.1009 2.55789 43.1957 2.01053 42.2062 2.01053C41.8483 2.01053 41.5641 2.10526 41.3536 2.29474C41.143 2.48421 41.0378 2.74737 41.0378 3.08421V21.7158C41.0378 21.9895 41.0904 22.1895 41.1957 22.3158C41.322 22.4211 41.522 22.4737 41.7957 22.4737H44.322V23.4842H33.0799V22.4737Z"/>
<path d="M56.6005 23.8632C56.0742 23.8632 55.6216 23.8 55.2426 23.6737C54.8637 23.5684 54.5058 23.4 54.1689 23.1684C53.6426 22.7895 53.2216 22.2632 52.9058 21.5895C52.611 20.9158 52.4637 20.2211 52.4637 19.5053V9.77895C52.4637 9.58947 52.4216 9.46316 52.3374 9.4C52.2742 9.31579 52.1479 9.27368 51.9584 9.27368H50.4426V8.51579H56.1268V20.4211C56.1268 22.0421 56.611 22.8526 57.5795 22.8526C58.0216 22.8526 58.4847 22.5579 58.9689 21.9684C59.4531 21.3789 59.8531 20.6 60.1689 19.6316C60.5058 18.6632 60.6742 17.6316 60.6742 16.5368V9.77895C60.6742 9.58947 60.6321 9.46316 60.5479 9.4C60.4847 9.31579 60.3584 9.27368 60.1689 9.27368H58.6531V8.51579H64.3374V22.2211C64.3374 22.4105 64.3689 22.5474 64.4321 22.6316C64.5163 22.6947 64.6531 22.7263 64.8426 22.7263H66.0426V23.4842H60.6742V20.6737L60.5163 20.6421C60.0952 21.6316 59.5479 22.4211 58.8742 23.0105C58.2216 23.5789 57.4637 23.8632 56.6005 23.8632Z"/>
<path d="M68.3101 22.7263H69.5101C69.6996 22.7263 69.8259 22.6947 69.8891 22.6316C69.9733 22.5474 70.0154 22.4105 70.0154 22.2211V9.77895C70.0154 9.58947 69.9733 9.46316 69.8891 9.4C69.8259 9.31579 69.6996 9.27368 69.5101 9.27368H68.3101V8.51579H73.6786V11.3263L73.8364 11.3579C74.2575 10.3684 74.7943 9.58947 75.447 9.02105C76.1207 8.43158 76.8891 8.13684 77.7522 8.13684C78.2786 8.13684 78.7312 8.2 79.1101 8.32632C79.4891 8.43158 79.847 8.6 80.1838 8.83158C80.7101 9.21053 81.1207 9.73684 81.4154 10.4105C81.7312 11.0842 81.8891 11.7789 81.8891 12.4947V22.2211C81.8891 22.4105 81.9207 22.5474 81.9838 22.6316C82.068 22.6947 82.2049 22.7263 82.3943 22.7263H83.5943V23.4842H76.7101V22.7263H77.7207C77.9101 22.7263 78.0364 22.6947 78.0996 22.6316C78.1838 22.5474 78.2259 22.4105 78.2259 22.2211V11.5789C78.2259 9.95789 77.7417 9.14737 76.7733 9.14737C76.3312 9.14737 75.868 9.44211 75.3838 10.0316C74.8996 10.6211 74.4891 11.4 74.1522 12.3684C73.8364 13.3368 73.6786 14.3684 73.6786 15.4632V22.2211C73.6786 22.4105 73.7101 22.5474 73.7733 22.6316C73.8575 22.6947 73.9943 22.7263 74.1838 22.7263H75.1943V23.4842H68.3101V22.7263Z"/>
<path d="M92.9311 31C90.9732 31 89.3101 30.6526 87.9416 29.9579C86.5943 29.2632 85.9206 28.3053 85.9206 27.0842C85.9206 26.3895 86.1837 25.7474 86.71 25.1579C87.2364 24.5895 87.9627 24.2 88.889 23.9895V23.8947C88.2574 23.8526 87.689 23.5895 87.1837 23.1053C86.6785 22.6211 86.4258 22.0211 86.4258 21.3053C86.4258 19.3053 87.6048 18.0737 89.9627 17.6105V17.4842C89.1416 17.1263 88.4153 16.5789 87.7837 15.8421C87.1732 15.1053 86.8679 14.1789 86.8679 13.0632C86.8679 12.1158 87.1311 11.2632 87.6574 10.5053C88.2048 9.74737 88.91 9.16842 89.7732 8.76842C90.6574 8.34737 91.6048 8.13684 92.6153 8.13684C94.3416 8.13684 95.8048 8.68421 97.0048 9.77895H97.0995C97.7522 8.68421 98.5311 8.13684 99.4364 8.13684C100.11 8.13684 100.657 8.34737 101.078 8.76842C101.5 9.16842 101.71 9.65263 101.71 10.2211C101.71 10.8526 101.531 11.4 101.173 11.8632C100.836 12.3263 100.426 12.5579 99.9416 12.5579C99.6048 12.5579 99.3101 12.4632 99.0574 12.2737C98.8048 12.0632 98.6785 11.7895 98.6785 11.4526C98.6785 11.1158 98.8469 10.7368 99.1837 10.3158C99.31 10.1895 99.4258 10.0421 99.5311 9.87368C99.6364 9.70526 99.689 9.55789 99.689 9.43158C99.689 9.09474 99.4679 8.92632 99.0258 8.92632C98.4574 8.92632 97.9206 9.36842 97.4153 10.2526C98.089 10.9895 98.4258 12.0105 98.4258 13.3158C98.4258 14.0737 98.1837 14.8211 97.6995 15.5579C97.2153 16.2737 96.5206 16.8632 95.6153 17.3263C94.7311 17.7895 93.71 18.0211 92.5522 18.0211C91.2679 18.0211 90.2364 18.1368 89.4574 18.3684C88.6785 18.5789 88.289 19.0211 88.289 19.6947C88.289 20.4316 88.8048 20.8 89.8364 20.8H94.8258C96.3206 20.8 97.5627 21.1579 98.5522 21.8737C99.5416 22.5895 100.036 23.6632 100.036 25.0947C100.036 26.1474 99.7522 27.1158 99.1837 28C98.6153 28.9053 97.7943 29.6316 96.7206 30.1789C95.6469 30.7263 94.3837 31 92.9311 31ZM92.6785 17.2316C93.3522 17.2316 93.8364 16.9053 94.1311 16.2526C94.4258 15.5789 94.5732 14.5158 94.5732 13.0632C94.5732 11.6105 94.4258 10.5579 94.1311 9.90526C93.8364 9.23158 93.3522 8.89474 92.6785 8.89474C91.9837 8.89474 91.4785 9.23158 91.1627 9.90526C90.8679 10.5579 90.7206 11.6105 90.7206 13.0632C90.7206 14.5158 90.8679 15.5789 91.1627 16.2526C91.4785 16.9053 91.9837 17.2316 92.6785 17.2316ZM92.4574 29.9895C93.91 29.9895 95.1837 29.6947 96.2785 29.1053C97.3732 28.5158 97.9206 27.6737 97.9206 26.5789C97.9206 25.7789 97.4785 25.2 96.5943 24.8421C95.71 24.5053 94.5837 24.3368 93.2153 24.3368C91.5943 24.3368 90.1627 24.5263 88.9206 24.9053C87.6785 25.3053 87.0574 26.0421 87.0574 27.1158C87.0574 28.0421 87.5943 28.7474 88.6679 29.2316C89.7627 29.7368 91.0258 29.9895 92.4574 29.9895Z"/>
<path d="M110.038 23.8632C108.901 23.8632 107.838 23.5263 106.848 22.8526C105.859 22.1579 105.069 21.2105 104.48 20.0105C103.89 18.8105 103.596 17.4737 103.596 16C103.596 14.5263 103.89 13.1895 104.48 11.9895C105.069 10.7895 105.859 9.85263 106.848 9.17895C107.838 8.48421 108.901 8.13684 110.038 8.13684C111.175 8.13684 112.238 8.48421 113.227 9.17895C114.217 9.85263 115.006 10.7895 115.596 11.9895C116.185 13.1895 116.48 14.5263 116.48 16C116.48 17.4737 116.185 18.8105 115.596 20.0105C115.006 21.2105 114.217 22.1579 113.227 22.8526C112.238 23.5263 111.175 23.8632 110.038 23.8632ZM110.038 23.1053C110.943 23.1053 111.564 22.5474 111.901 21.4316C112.259 20.3158 112.438 18.5053 112.438 16C112.438 13.4947 112.259 11.6842 111.901 10.5684C111.564 9.45263 110.943 8.89474 110.038 8.89474C109.132 8.89474 108.501 9.45263 108.143 10.5684C107.806 11.6842 107.638 13.4947 107.638 16C107.638 18.5053 107.806 20.3158 108.143 21.4316C108.501 22.5474 109.132 23.1053 110.038 23.1053Z"/>
</mask>
<path d="M33.0799 22.4737H35.6062C35.9009 22.4737 36.1009 22.4211 36.2062 22.3158C36.3115 22.1895 36.3641 21.9895 36.3641 21.7158V3.08421C36.3641 2.74737 36.2588 2.48421 36.0483 2.29474C35.8378 2.10526 35.5536 2.01053 35.1957 2.01053C34.2062 2.01053 33.3009 2.55789 32.4799 3.65263C31.6588 4.72632 31.0483 5.98947 30.6483 7.44211C30.4167 8.22105 30.2483 8.88421 30.143 9.43158C30.0588 9.95789 30.0062 10.2842 29.9851 10.4105H28.9746L29.2272 1H48.1746L48.4272 10.4105H47.4167C47.3957 10.2842 47.3325 9.95789 47.2272 9.43158C47.143 8.88421 46.9851 8.22105 46.7536 7.44211C46.3536 5.98947 45.743 4.72632 44.922 3.65263C44.1009 2.55789 43.1957 2.01053 42.2062 2.01053C41.8483 2.01053 41.5641 2.10526 41.3536 2.29474C41.143 2.48421 41.0378 2.74737 41.0378 3.08421V21.7158C41.0378 21.9895 41.0904 22.1895 41.1957 22.3158C41.322 22.4211 41.522 22.4737 41.7957 22.4737H44.322V23.4842H33.0799V22.4737Z" fill="#FEFAF6"/>
<path d="M56.6005 23.8632C56.0742 23.8632 55.6216 23.8 55.2426 23.6737C54.8637 23.5684 54.5058 23.4 54.1689 23.1684C53.6426 22.7895 53.2216 22.2632 52.9058 21.5895C52.611 20.9158 52.4637 20.2211 52.4637 19.5053V9.77895C52.4637 9.58947 52.4216 9.46316 52.3374 9.4C52.2742 9.31579 52.1479 9.27368 51.9584 9.27368H50.4426V8.51579H56.1268V20.4211C56.1268 22.0421 56.611 22.8526 57.5795 22.8526C58.0216 22.8526 58.4847 22.5579 58.9689 21.9684C59.4531 21.3789 59.8531 20.6 60.1689 19.6316C60.5058 18.6632 60.6742 17.6316 60.6742 16.5368V9.77895C60.6742 9.58947 60.6321 9.46316 60.5479 9.4C60.4847 9.31579 60.3584 9.27368 60.1689 9.27368H58.6531V8.51579H64.3374V22.2211C64.3374 22.4105 64.3689 22.5474 64.4321 22.6316C64.5163 22.6947 64.6531 22.7263 64.8426 22.7263H66.0426V23.4842H60.6742V20.6737L60.5163 20.6421C60.0952 21.6316 59.5479 22.4211 58.8742 23.0105C58.2216 23.5789 57.4637 23.8632 56.6005 23.8632Z" fill="#FEFAF6"/>
<path d="M68.3101 22.7263H69.5101C69.6996 22.7263 69.8259 22.6947 69.8891 22.6316C69.9733 22.5474 70.0154 22.4105 70.0154 22.2211V9.77895C70.0154 9.58947 69.9733 9.46316 69.8891 9.4C69.8259 9.31579 69.6996 9.27368 69.5101 9.27368H68.3101V8.51579H73.6786V11.3263L73.8364 11.3579C74.2575 10.3684 74.7943 9.58947 75.447 9.02105C76.1207 8.43158 76.8891 8.13684 77.7522 8.13684C78.2786 8.13684 78.7312 8.2 79.1101 8.32632C79.4891 8.43158 79.847 8.6 80.1838 8.83158C80.7101 9.21053 81.1207 9.73684 81.4154 10.4105C81.7312 11.0842 81.8891 11.7789 81.8891 12.4947V22.2211C81.8891 22.4105 81.9207 22.5474 81.9838 22.6316C82.068 22.6947 82.2049 22.7263 82.3943 22.7263H83.5943V23.4842H76.7101V22.7263H77.7207C77.9101 22.7263 78.0364 22.6947 78.0996 22.6316C78.1838 22.5474 78.2259 22.4105 78.2259 22.2211V11.5789C78.2259 9.95789 77.7417 9.14737 76.7733 9.14737C76.3312 9.14737 75.868 9.44211 75.3838 10.0316C74.8996 10.6211 74.4891 11.4 74.1522 12.3684C73.8364 13.3368 73.6786 14.3684 73.6786 15.4632V22.2211C73.6786 22.4105 73.7101 22.5474 73.7733 22.6316C73.8575 22.6947 73.9943 22.7263 74.1838 22.7263H75.1943V23.4842H68.3101V22.7263Z" fill="#FEFAF6"/>
<path d="M92.9311 31C90.9732 31 89.3101 30.6526 87.9416 29.9579C86.5943 29.2632 85.9206 28.3053 85.9206 27.0842C85.9206 26.3895 86.1837 25.7474 86.71 25.1579C87.2364 24.5895 87.9627 24.2 88.889 23.9895V23.8947C88.2574 23.8526 87.689 23.5895 87.1837 23.1053C86.6785 22.6211 86.4258 22.0211 86.4258 21.3053C86.4258 19.3053 87.6048 18.0737 89.9627 17.6105V17.4842C89.1416 17.1263 88.4153 16.5789 87.7837 15.8421C87.1732 15.1053 86.8679 14.1789 86.8679 13.0632C86.8679 12.1158 87.1311 11.2632 87.6574 10.5053C88.2048 9.74737 88.91 9.16842 89.7732 8.76842C90.6574 8.34737 91.6048 8.13684 92.6153 8.13684C94.3416 8.13684 95.8048 8.68421 97.0048 9.77895H97.0995C97.7522 8.68421 98.5311 8.13684 99.4364 8.13684C100.11 8.13684 100.657 8.34737 101.078 8.76842C101.5 9.16842 101.71 9.65263 101.71 10.2211C101.71 10.8526 101.531 11.4 101.173 11.8632C100.836 12.3263 100.426 12.5579 99.9416 12.5579C99.6048 12.5579 99.3101 12.4632 99.0574 12.2737C98.8048 12.0632 98.6785 11.7895 98.6785 11.4526C98.6785 11.1158 98.8469 10.7368 99.1837 10.3158C99.31 10.1895 99.4258 10.0421 99.5311 9.87368C99.6364 9.70526 99.689 9.55789 99.689 9.43158C99.689 9.09474 99.4679 8.92632 99.0258 8.92632C98.4574 8.92632 97.9206 9.36842 97.4153 10.2526C98.089 10.9895 98.4258 12.0105 98.4258 13.3158C98.4258 14.0737 98.1837 14.8211 97.6995 15.5579C97.2153 16.2737 96.5206 16.8632 95.6153 17.3263C94.7311 17.7895 93.71 18.0211 92.5522 18.0211C91.2679 18.0211 90.2364 18.1368 89.4574 18.3684C88.6785 18.5789 88.289 19.0211 88.289 19.6947C88.289 20.4316 88.8048 20.8 89.8364 20.8H94.8258C96.3206 20.8 97.5627 21.1579 98.5522 21.8737C99.5416 22.5895 100.036 23.6632 100.036 25.0947C100.036 26.1474 99.7522 27.1158 99.1837 28C98.6153 28.9053 97.7943 29.6316 96.7206 30.1789C95.6469 30.7263 94.3837 31 92.9311 31ZM92.6785 17.2316C93.3522 17.2316 93.8364 16.9053 94.1311 16.2526C94.4258 15.5789 94.5732 14.5158 94.5732 13.0632C94.5732 11.6105 94.4258 10.5579 94.1311 9.90526C93.8364 9.23158 93.3522 8.89474 92.6785 8.89474C91.9837 8.89474 91.4785 9.23158 91.1627 9.90526C90.8679 10.5579 90.7206 11.6105 90.7206 13.0632C90.7206 14.5158 90.8679 15.5789 91.1627 16.2526C91.4785 16.9053 91.9837 17.2316 92.6785 17.2316ZM92.4574 29.9895C93.91 29.9895 95.1837 29.6947 96.2785 29.1053C97.3732 28.5158 97.9206 27.6737 97.9206 26.5789C97.9206 25.7789 97.4785 25.2 96.5943 24.8421C95.71 24.5053 94.5837 24.3368 93.2153 24.3368C91.5943 24.3368 90.1627 24.5263 88.9206 24.9053C87.6785 25.3053 87.0574 26.0421 87.0574 27.1158C87.0574 28.0421 87.5943 28.7474 88.6679 29.2316C89.7627 29.7368 91.0258 29.9895 92.4574 29.9895Z" fill="#FEFAF6"/>
<path d="M110.038 23.8632C108.901 23.8632 107.838 23.5263 106.848 22.8526C105.859 22.1579 105.069 21.2105 104.48 20.0105C103.89 18.8105 103.596 17.4737 103.596 16C103.596 14.5263 103.89 13.1895 104.48 11.9895C105.069 10.7895 105.859 9.85263 106.848 9.17895C107.838 8.48421 108.901 8.13684 110.038 8.13684C111.175 8.13684 112.238 8.48421 113.227 9.17895C114.217 9.85263 115.006 10.7895 115.596 11.9895C116.185 13.1895 116.48 14.5263 116.48 16C116.48 17.4737 116.185 18.8105 115.596 20.0105C115.006 21.2105 114.217 22.1579 113.227 22.8526C112.238 23.5263 111.175 23.8632 110.038 23.8632ZM110.038 23.1053C110.943 23.1053 111.564 22.5474 111.901 21.4316C112.259 20.3158 112.438 18.5053 112.438 16C112.438 13.4947 112.259 11.6842 111.901 10.5684C111.564 9.45263 110.943 8.89474 110.038 8.89474C109.132 8.89474 108.501 9.45263 108.143 10.5684C107.806 11.6842 107.638 13.4947 107.638 16C107.638 18.5053 107.806 20.3158 108.143 21.4316C108.501 22.5474 109.132 23.1053 110.038 23.1053Z" fill="#FEFAF6"/>
<path d="M33.0799 22.4737H35.6062C35.9009 22.4737 36.1009 22.4211 36.2062 22.3158C36.3115 22.1895 36.3641 21.9895 36.3641 21.7158V3.08421C36.3641 2.74737 36.2588 2.48421 36.0483 2.29474C35.8378 2.10526 35.5536 2.01053 35.1957 2.01053C34.2062 2.01053 33.3009 2.55789 32.4799 3.65263C31.6588 4.72632 31.0483 5.98947 30.6483 7.44211C30.4167 8.22105 30.2483 8.88421 30.143 9.43158C30.0588 9.95789 30.0062 10.2842 29.9851 10.4105H28.9746L29.2272 1H48.1746L48.4272 10.4105H47.4167C47.3957 10.2842 47.3325 9.95789 47.2272 9.43158C47.143 8.88421 46.9851 8.22105 46.7536 7.44211C46.3536 5.98947 45.743 4.72632 44.922 3.65263C44.1009 2.55789 43.1957 2.01053 42.2062 2.01053C41.8483 2.01053 41.5641 2.10526 41.3536 2.29474C41.143 2.48421 41.0378 2.74737 41.0378 3.08421V21.7158C41.0378 21.9895 41.0904 22.1895 41.1957 22.3158C41.322 22.4211 41.522 22.4737 41.7957 22.4737H44.322V23.4842H33.0799V22.4737Z" stroke="#FEFAF6" stroke-width="0.4" mask="url(#path-1-outside-1_5150_182)"/>
<path d="M56.6005 23.8632C56.0742 23.8632 55.6216 23.8 55.2426 23.6737C54.8637 23.5684 54.5058 23.4 54.1689 23.1684C53.6426 22.7895 53.2216 22.2632 52.9058 21.5895C52.611 20.9158 52.4637 20.2211 52.4637 19.5053V9.77895C52.4637 9.58947 52.4216 9.46316 52.3374 9.4C52.2742 9.31579 52.1479 9.27368 51.9584 9.27368H50.4426V8.51579H56.1268V20.4211C56.1268 22.0421 56.611 22.8526 57.5795 22.8526C58.0216 22.8526 58.4847 22.5579 58.9689 21.9684C59.4531 21.3789 59.8531 20.6 60.1689 19.6316C60.5058 18.6632 60.6742 17.6316 60.6742 16.5368V9.77895C60.6742 9.58947 60.6321 9.46316 60.5479 9.4C60.4847 9.31579 60.3584 9.27368 60.1689 9.27368H58.6531V8.51579H64.3374V22.2211C64.3374 22.4105 64.3689 22.5474 64.4321 22.6316C64.5163 22.6947 64.6531 22.7263 64.8426 22.7263H66.0426V23.4842H60.6742V20.6737L60.5163 20.6421C60.0952 21.6316 59.5479 22.4211 58.8742 23.0105C58.2216 23.5789 57.4637 23.8632 56.6005 23.8632Z" stroke="#FEFAF6" stroke-width="0.4" mask="url(#path-1-outside-1_5150_182)"/>
<path d="M68.3101 22.7263H69.5101C69.6996 22.7263 69.8259 22.6947 69.8891 22.6316C69.9733 22.5474 70.0154 22.4105 70.0154 22.2211V9.77895C70.0154 9.58947 69.9733 9.46316 69.8891 9.4C69.8259 9.31579 69.6996 9.27368 69.5101 9.27368H68.3101V8.51579H73.6786V11.3263L73.8364 11.3579C74.2575 10.3684 74.7943 9.58947 75.447 9.02105C76.1207 8.43158 76.8891 8.13684 77.7522 8.13684C78.2786 8.13684 78.7312 8.2 79.1101 8.32632C79.4891 8.43158 79.847 8.6 80.1838 8.83158C80.7101 9.21053 81.1207 9.73684 81.4154 10.4105C81.7312 11.0842 81.8891 11.7789 81.8891 12.4947V22.2211C81.8891 22.4105 81.9207 22.5474 81.9838 22.6316C82.068 22.6947 82.2049 22.7263 82.3943 22.7263H83.5943V23.4842H76.7101V22.7263H77.7207C77.9101 22.7263 78.0364 22.6947 78.0996 22.6316C78.1838 22.5474 78.2259 22.4105 78.2259 22.2211V11.5789C78.2259 9.95789 77.7417 9.14737 76.7733 9.14737C76.3312 9.14737 75.868 9.44211 75.3838 10.0316C74.8996 10.6211 74.4891 11.4 74.1522 12.3684C73.8364 13.3368 73.6786 14.3684 73.6786 15.4632V22.2211C73.6786 22.4105 73.7101 22.5474 73.7733 22.6316C73.8575 22.6947 73.9943 22.7263 74.1838 22.7263H75.1943V23.4842H68.3101V22.7263Z" stroke="#FEFAF6" stroke-width="0.4" mask="url(#path-1-outside-1_5150_182)"/>
<path d="M92.9311 31C90.9732 31 89.3101 30.6526 87.9416 29.9579C86.5943 29.2632 85.9206 28.3053 85.9206 27.0842C85.9206 26.3895 86.1837 25.7474 86.71 25.1579C87.2364 24.5895 87.9627 24.2 88.889 23.9895V23.8947C88.2574 23.8526 87.689 23.5895 87.1837 23.1053C86.6785 22.6211 86.4258 22.0211 86.4258 21.3053C86.4258 19.3053 87.6048 18.0737 89.9627 17.6105V17.4842C89.1416 17.1263 88.4153 16.5789 87.7837 15.8421C87.1732 15.1053 86.8679 14.1789 86.8679 13.0632C86.8679 12.1158 87.1311 11.2632 87.6574 10.5053C88.2048 9.74737 88.91 9.16842 89.7732 8.76842C90.6574 8.34737 91.6048 8.13684 92.6153 8.13684C94.3416 8.13684 95.8048 8.68421 97.0048 9.77895H97.0995C97.7522 8.68421 98.5311 8.13684 99.4364 8.13684C100.11 8.13684 100.657 8.34737 101.078 8.76842C101.5 9.16842 101.71 9.65263 101.71 10.2211C101.71 10.8526 101.531 11.4 101.173 11.8632C100.836 12.3263 100.426 12.5579 99.9416 12.5579C99.6048 12.5579 99.3101 12.4632 99.0574 12.2737C98.8048 12.0632 98.6785 11.7895 98.6785 11.4526C98.6785 11.1158 98.8469 10.7368 99.1837 10.3158C99.31 10.1895 99.4258 10.0421 99.5311 9.87368C99.6364 9.70526 99.689 9.55789 99.689 9.43158C99.689 9.09474 99.4679 8.92632 99.0258 8.92632C98.4574 8.92632 97.9206 9.36842 97.4153 10.2526C98.089 10.9895 98.4258 12.0105 98.4258 13.3158C98.4258 14.0737 98.1837 14.8211 97.6995 15.5579C97.2153 16.2737 96.5206 16.8632 95.6153 17.3263C94.7311 17.7895 93.71 18.0211 92.5522 18.0211C91.2679 18.0211 90.2364 18.1368 89.4574 18.3684C88.6785 18.5789 88.289 19.0211 88.289 19.6947C88.289 20.4316 88.8048 20.8 89.8364 20.8H94.8258C96.3206 20.8 97.5627 21.1579 98.5522 21.8737C99.5416 22.5895 100.036 23.6632 100.036 25.0947C100.036 26.1474 99.7522 27.1158 99.1837 28C98.6153 28.9053 97.7943 29.6316 96.7206 30.1789C95.6469 30.7263 94.3837 31 92.9311 31ZM92.6785 17.2316C93.3522 17.2316 93.8364 16.9053 94.1311 16.2526C94.4258 15.5789 94.5732 14.5158 94.5732 13.0632C94.5732 11.6105 94.4258 10.5579 94.1311 9.90526C93.8364 9.23158 93.3522 8.89474 92.6785 8.89474C91.9837 8.89474 91.4785 9.23158 91.1627 9.90526C90.8679 10.5579 90.7206 11.6105 90.7206 13.0632C90.7206 14.5158 90.8679 15.5789 91.1627 16.2526C91.4785 16.9053 91.9837 17.2316 92.6785 17.2316ZM92.4574 29.9895C93.91 29.9895 95.1837 29.6947 96.2785 29.1053C97.3732 28.5158 97.9206 27.6737 97.9206 26.5789C97.9206 25.7789 97.4785 25.2 96.5943 24.8421C95.71 24.5053 94.5837 24.3368 93.2153 24.3368C91.5943 24.3368 90.1627 24.5263 88.9206 24.9053C87.6785 25.3053 87.0574 26.0421 87.0574 27.1158C87.0574 28.0421 87.5943 28.7474 88.6679 29.2316C89.7627 29.7368 91.0258 29.9895 92.4574 29.9895Z" stroke="#FEFAF6" stroke-width="0.4" mask="url(#path-1-outside-1_5150_182)"/>
<path d="M110.038 23.8632C108.901 23.8632 107.838 23.5263 106.848 22.8526C105.859 22.1579 105.069 21.2105 104.48 20.0105C103.89 18.8105 103.596 17.4737 103.596 16C103.596 14.5263 103.89 13.1895 104.48 11.9895C105.069 10.7895 105.859 9.85263 106.848 9.17895C107.838 8.48421 108.901 8.13684 110.038 8.13684C111.175 8.13684 112.238 8.48421 113.227 9.17895C114.217 9.85263 115.006 10.7895 115.596 11.9895C116.185 13.1895 116.48 14.5263 116.48 16C116.48 17.4737 116.185 18.8105 115.596 20.0105C115.006 21.2105 114.217 22.1579 113.227 22.8526C112.238 23.5263 111.175 23.8632 110.038 23.8632ZM110.038 23.1053C110.943 23.1053 111.564 22.5474 111.901 21.4316C112.259 20.3158 112.438 18.5053 112.438 16C112.438 13.4947 112.259 11.6842 111.901 10.5684C111.564 9.45263 110.943 8.89474 110.038 8.89474C109.132 8.89474 108.501 9.45263 108.143 10.5684C107.806 11.6842 107.638 13.4947 107.638 16C107.638 18.5053 107.806 20.3158 108.143 21.4316C108.501 22.5474 109.132 23.1053 110.038 23.1053Z" stroke="#FEFAF6" stroke-width="0.4" mask="url(#path-1-outside-1_5150_182)"/>
<path d="M22.3758 23.4017V14.6112C22.3763 14.4437 22.324 14.2803 22.2265 14.144C22.129 14.0078 21.9911 13.9057 21.8324 13.852L17.581 12.4376V4.22244C17.5872 4.04203 17.5321 3.86483 17.4247 3.71972C17.3173 3.57461 17.164 3.47013 16.9896 3.4233L8.19914 1.02589C8.0264 0.980815 7.84353 0.994882 7.6797 1.06585L2.08575 3.46326C1.93748 3.52598 1.81161 3.63201 1.72463 3.76748C1.63764 3.90294 1.5936 4.06152 1.59827 4.22244V23.4017H0V25H23.9741V23.4017H22.3758ZM20.7776 15.1866V23.4017H19.9784V19.406H18.3801V23.4017H17.581V14.1237L20.7776 15.1866ZM13.1858 23.4017H11.5875V18.0315L13.1858 18.4311V23.4017ZM14.1767 17.0086L10.9801 16.2095C10.8622 16.1796 10.739 16.177 10.6199 16.2019C10.5008 16.2268 10.3889 16.2786 10.2929 16.3533C10.1976 16.4286 10.1208 16.5246 10.0682 16.6339C10.0156 16.7433 9.98856 16.8633 9.98921 16.9847V23.3778H8.79051V12.4615L15.9827 14.4194V23.4017H14.784V17.8078C14.7893 17.6252 14.732 17.4464 14.6215 17.301C14.511 17.1556 14.354 17.0524 14.1767 17.0086ZM3.19655 7.94642L7.19223 6.23627V7.6907L3.19655 9.40085V7.94642ZM8.79051 9.265L15.9827 11.2229V12.7652L8.79051 10.8073V9.265ZM15.9827 9.56867L8.79051 7.61078V6.06845L15.9827 8.02633V9.56867ZM3.19655 11.1669L7.19223 9.45679V10.9112L3.19655 12.5974V11.1669ZM15.9827 6.37212L8.79051 4.41423V2.8719L15.9827 4.82979V6.37212ZM7.19223 3.03972V4.49415L3.19655 6.2043V4.74987L7.19223 3.03972ZM3.19655 14.3395L7.19223 12.6294V23.4017H5.99353V16.2095H4.39525V23.4017H3.19655V14.3395Z" fill="#FEFAF6"/>
</svg>
