<svg width="17" height="16" viewBox="0 0 17 16" fill="none" xmlns="http://www.w3.org/2000/svg">
<path fill-rule="evenodd" clip-rule="evenodd" d="M8.59792 0.0351562C4.10924 0.0351562 0.498047 3.64635 0.498047 8.13503C0.498047 11.7125 2.82676 14.7499 6.03296 15.8299C6.43795 15.8974 6.57295 15.6612 6.57295 15.4249C6.57295 15.2224 6.57295 14.7162 6.57295 14.0412C4.31174 14.5474 3.83924 12.9612 3.83924 12.9612C3.468 12.0162 2.92801 11.78 2.92801 11.78C2.18552 11.2737 2.99551 11.2737 2.99551 11.2737C3.80549 11.3412 4.24424 12.1175 4.24424 12.1175C4.95297 13.3662 6.13421 12.995 6.6067 12.7925C6.6742 12.2525 6.87669 11.915 7.11294 11.7125C5.32422 11.51 3.43425 10.8012 3.43425 7.69628C3.43425 6.8188 3.73799 6.07631 4.27799 5.53632C4.21049 5.33382 3.90674 4.52383 4.34548 3.37635C4.34548 3.37635 5.02047 3.17386 6.57295 4.22009C7.21419 4.05134 7.92293 3.95009 8.59792 3.95009C9.2729 3.95009 9.98164 4.05134 10.6229 4.22009C12.1754 3.17386 12.8503 3.37635 12.8503 3.37635C13.2891 4.49009 13.0191 5.30007 12.9178 5.53632C13.4241 6.11006 13.7616 6.8188 13.7616 7.69628C13.7616 10.8012 11.8716 11.4762 10.0491 11.6787C10.3529 11.915 10.5891 12.4212 10.5891 13.1637C10.5891 14.2437 10.5891 15.1212 10.5891 15.3912C10.5891 15.5937 10.7241 15.8637 11.1629 15.7962C14.3691 14.7499 16.6978 11.7125 16.6978 8.13503C16.6978 3.64635 13.0866 0.0351562 8.59792 0.0351562Z" fill="#FEFAF6"/>
</svg>
