<svg width="16" height="15" viewBox="0 0 16 15" fill="none" xmlns="http://www.w3.org/2000/svg">
<path d="M3.61094 2.05234C3.61073 2.46488 3.44665 2.86044 3.1548 3.152C2.86295 3.44356 2.46723 3.60724 2.05469 3.60703C1.64216 3.60683 1.2466 3.44275 0.955036 3.1509C0.663475 2.85904 0.499794 2.46332 0.5 2.05079C0.500206 1.63825 0.664284 1.24269 0.956136 0.95113C1.24799 0.659569 1.64371 0.495888 2.05625 0.496094C2.46878 0.4963 2.86434 0.660377 3.1559 0.95223C3.44746 1.24408 3.61114 1.6398 3.61094 2.05234ZM3.6576 4.75886H0.546664V14.4961H3.6576V4.75886ZM8.57288 4.75886H5.4775V14.4961H8.54177V9.38638C8.54177 6.53987 12.2516 6.27544 12.2516 9.38638V14.4961H15.3236V8.32866C15.3236 3.53004 9.83281 3.70892 8.54177 6.06545L8.57288 4.75886Z" fill="#FEFAF6"/>
</svg>
