<svg width="40" height="30" viewBox="0 0 40 30" fill="none" xmlns="http://www.w3.org/2000/svg">
<path d="M3.4732 27.4141C1.21335 25.0151 0 22.3228 0 17.9584C0 10.2824 5.38834 3.40097 13.2281 0L15.1862 3.02178C7.87034 6.98015 6.44049 12.1143 5.869 15.3519C7.04688 14.7427 8.5888 14.5284 10.1004 14.6686C14.0583 15.0356 17.1777 18.2846 17.1777 22.3228C17.1777 26.5628 13.7404 30 9.50037 30C7.14662 30 4.89579 28.9241 3.4732 27.4141ZM25.4081 27.4141C23.1484 25.0151 21.9349 22.3228 21.9349 17.9584C21.9349 10.2824 27.3232 3.40097 35.163 0L37.1211 3.02178C29.8052 6.98015 28.3755 12.1143 27.8038 15.3519C28.9817 14.7427 30.5238 14.5284 32.0353 14.6686C35.9932 15.0356 39.1126 18.2846 39.1126 22.3228C39.1126 26.5628 35.6754 30 31.4354 30C29.0815 30 26.8308 28.9241 25.4081 27.4141Z" fill="#DAC0A3"/>
</svg>
