<svg width="24" height="24" viewBox="0 0 24 24" fill="none" xmlns="http://www.w3.org/2000/svg">
<path d="M18.9401 17.2693L24 22.3292L22.3292 24L17.2693 18.9401C15.4499 20.3957 13.1427 21.2664 10.6332 21.2664C4.76368 21.2664 0 16.5028 0 10.6332C0 4.76368 4.76368 0 10.6332 0C16.5028 0 21.2664 4.76368 21.2664 10.6332C21.2664 13.1427 20.3957 15.4499 18.9401 17.2693ZM16.5697 16.3926C18.0144 14.9038 18.9035 12.8728 18.9035 10.6332C18.9035 6.06389 15.2025 2.36294 10.6332 2.36294C6.06389 2.36294 2.36294 6.06389 2.36294 10.6332C2.36294 15.2025 6.06389 18.9035 10.6332 18.9035C12.8728 18.9035 14.9038 18.0144 16.3926 16.5697L16.5697 16.3926Z" fill="#102C57"/>
</svg>
