<svg width="20" height="23" viewBox="0 0 20 23" fill="none" xmlns="http://www.w3.org/2000/svg">
<path d="M15.7949 16.334C14.7524 17.3765 12.541 19.5879 11.0795 21.0494C10.2985 21.8304 9.03463 21.8302 8.25359 21.0492C6.81729 19.6129 4.65012 17.4457 3.53841 16.334C0.153864 12.9494 0.153864 7.46201 3.53841 4.07747C6.92295 0.692927 12.4104 0.692927 15.7949 4.07747C19.1795 7.46201 19.1795 12.9494 15.7949 16.334Z" stroke="#FEFAF6" stroke-width="2" stroke-linecap="round" stroke-linejoin="round"/>
<path d="M12.9167 10.2057C12.9167 12.0007 11.4616 13.4557 9.66667 13.4557C7.87174 13.4557 6.41667 12.0007 6.41667 10.2057C6.41667 8.4108 7.87174 6.95573 9.66667 6.95573C11.4616 6.95573 12.9167 8.4108 12.9167 10.2057Z" stroke="#FEFAF6" stroke-width="2" stroke-linecap="round" stroke-linejoin="round"/>
</svg>
