<svg width="20" height="23" viewBox="0 0 20 23" fill="none" xmlns="http://www.w3.org/2000/svg">
<path d="M15.7949 16.333C14.7524 17.3755 12.541 19.5869 11.0795 21.0484C10.2985 21.8294 9.03463 21.8292 8.25359 21.0482C6.81729 19.6119 4.65012 17.4447 3.53841 16.333C0.153864 12.9485 0.153864 7.46104 3.53841 4.07649C6.92295 0.69195 12.4104 0.69195 15.7949 4.07649C19.1795 7.46104 19.1795 12.9485 15.7949 16.333Z" stroke="#102C57" stroke-width="2" stroke-linecap="round" stroke-linejoin="round"/>
<path d="M12.9167 10.2048C12.9167 11.9997 11.4616 13.4548 9.66667 13.4548C7.87174 13.4548 6.41667 11.9997 6.41667 10.2048C6.41667 8.40983 7.87174 6.95475 9.66667 6.95475C11.4616 6.95475 12.9167 8.40983 12.9167 10.2048Z" stroke="#102C57" stroke-width="2" stroke-linecap="round" stroke-linejoin="round"/>
</svg>
