<svg width="29" height="33" viewBox="0 0 29 33" fill="none" xmlns="http://www.w3.org/2000/svg">
<path d="M23.2132 23.2132C21.5634 24.863 17.8722 28.5542 15.8382 30.5882C15.0572 31.3692 13.7956 31.3692 13.0146 30.5882C11.014 28.5876 7.4019 24.9755 5.63961 23.2132C0.786797 18.3604 0.786797 10.4924 5.63961 5.63961C10.4924 0.786797 18.3604 0.786797 23.2132 5.63961C28.066 10.4924 28.066 18.3604 23.2132 23.2132Z" stroke="#DAC0A3" stroke-width="3" stroke-linecap="round" stroke-linejoin="round"/>
<path d="M19.0863 14.4264C19.0863 17 17 19.0863 14.4264 19.0863C11.8528 19.0863 9.7665 17 9.7665 14.4264C9.7665 11.8528 11.8528 9.7665 14.4264 9.7665C17 9.7665 19.0863 11.8528 19.0863 14.4264Z" stroke="#DAC0A3" stroke-width="3" stroke-linecap="round" stroke-linejoin="round"/>
</svg>
