<svg width="21" height="20" viewBox="0 0 21 20" fill="none" xmlns="http://www.w3.org/2000/svg">
<path d="M20.2222 14.9111V18.8401C20.2222 19.4234 19.7712 19.9074 19.1894 19.9486C18.7034 19.9829 18.3069 20 17.9999 20C8.1815 20 0.222168 12.0407 0.222168 2.22222C0.222168 1.91523 0.239335 1.51874 0.273668 1.03278C0.314801 0.450978 0.798768 0 1.38201 0H5.31117C5.59637 0 5.83523 0.216022 5.86387 0.499778C5.88958 0.754522 5.91348 0.959044 5.93558 1.11336C6.16033 2.68302 6.61942 4.17707 7.27628 5.55892C7.38171 5.78072 7.31296 6.04621 7.11311 6.18896L4.715 7.902C6.17497 11.3123 8.90983 14.0472 12.3202 15.5072L14.0301 13.1132C14.1746 12.911 14.4433 12.8414 14.6677 12.948C16.0495 13.6043 17.5434 14.0629 19.1128 14.2871C19.2662 14.3091 19.4694 14.3328 19.7224 14.3583C20.0062 14.387 20.2222 14.6259 20.2222 14.9111Z" fill="#102C57"/>
</svg>
